ToyLandingModel_states
version=1
nRows=4
nColumns=195
inDegrees=yes

# SIMM Motion File Header:
name ToyLandingModel_states
datacolumns 195
datarows 4
otherdata 1
range 0.35240726 0.35293113
endheader
time	/jointset/ground_platform/platform_rx/value	/jointset/ground_platform/platform_rx/speed	/jointset/ground_platform/platform_ry/value	/jointset/ground_platform/platform_ry/speed	/jointset/ground_platform/platform_rz/value	/jointset/ground_platform/platform_rz/speed	/jointset/ground_platform/platform_ty/value	/jointset/ground_platform/platform_ty/speed	/jointset/ground_pelvis/pelvis_tilt/value	/jointset/ground_pelvis/pelvis_tilt/speed	/jointset/ground_pelvis/pelvis_list/value	/jointset/ground_pelvis/pelvis_list/speed	/jointset/ground_pelvis/pelvis_rotation/value	/jointset/ground_pelvis/pelvis_rotation/speed	/jointset/ground_pelvis/pelvis_tx/value	/jointset/ground_pelvis/pelvis_tx/speed	/jointset/ground_pelvis/pelvis_ty/value	/jointset/ground_pelvis/pelvis_ty/speed	/jointset/ground_pelvis/pelvis_tz/value	/jointset/ground_pelvis/pelvis_tz/speed	/jointset/hip_r/hip_flexion_r/value	/jointset/hip_r/hip_flexion_r/speed	/jointset/hip_r/hip_adduction_r/value	/jointset/hip_r/hip_adduction_r/speed	/jointset/hip_r/hip_rotation_r/value	/jointset/hip_r/hip_rotation_r/speed	/jointset/knee_r/knee_angle_r/value	/jointset/knee_r/knee_angle_r/speed	/jointset/ankle_r/ankle_angle_r/value	/jointset/ankle_r/ankle_angle_r/speed	/jointset/subtalar_r/subtalar_angle_r/value	/jointset/subtalar_r/subtalar_angle_r/speed	/jointset/mtp_r/mtp_angle_r/value	/jointset/mtp_r/mtp_angle_r/speed	/jointset/hip_l/hip_flexion_l/value	/jointset/hip_l/hip_flexion_l/speed	/jointset/hip_l/hip_adduction_l/value	/jointset/hip_l/hip_adduction_l/speed	/jointset/hip_l/hip_rotation_l/value	/jointset/hip_l/hip_rotation_l/speed	/jointset/knee_l/knee_angle_l/value	/jointset/knee_l/knee_angle_l/speed	/jointset/ankle_l/ankle_angle_l/value	/jointset/ankle_l/ankle_angle_l/speed	/jointset/subtalar_l/subtalar_angle_l/value	/jointset/subtalar_l/subtalar_angle_l/speed	/jointset/mtp_l/mtp_angle_l/value	/jointset/mtp_l/mtp_angle_l/speed	/jointset/back/lumbar_extension/value	/jointset/back/lumbar_extension/speed	/jointset/back/lumbar_bending/value	/jointset/back/lumbar_bending/speed	/jointset/back/lumbar_rotation/value	/jointset/back/lumbar_rotation/speed	/forceset/glut_med1_r/activation	/forceset/glut_med1_r/fiber_length	/forceset/glut_med2_r/activation	/forceset/glut_med2_r/fiber_length	/forceset/glut_med3_r/activation	/forceset/glut_med3_r/fiber_length	/forceset/bifemlh_r/activation	/forceset/bifemlh_r/fiber_length	/forceset/bifemsh_r/activation	/forceset/bifemsh_r/fiber_length	/forceset/sar_r/activation	/forceset/sar_r/fiber_length	/forceset/add_mag2_r/activation	/forceset/add_mag2_r/fiber_length	/forceset/tfl_r/activation	/forceset/tfl_r/fiber_length	/forceset/pect_r/activation	/forceset/pect_r/fiber_length	/forceset/grac_r/activation	/forceset/grac_r/fiber_length	/forceset/glut_max1_r/activation	/forceset/glut_max1_r/fiber_length	/forceset/glut_max2_r/activation	/forceset/glut_max2_r/fiber_length	/forceset/glut_max3_r/activation	/forceset/glut_max3_r/fiber_length	/forceset/iliacus_r/activation	/forceset/iliacus_r/fiber_length	/forceset/psoas_r/activation	/forceset/psoas_r/fiber_length	/forceset/quad_fem_r/activation	/forceset/quad_fem_r/fiber_length	/forceset/gem_r/activation	/forceset/gem_r/fiber_length	/forceset/peri_r/activation	/forceset/peri_r/fiber_length	/forceset/rect_fem_r/activation	/forceset/rect_fem_r/fiber_length	/forceset/vas_int_r/activation	/forceset/vas_int_r/fiber_length	/forceset/med_gas_r/activation	/forceset/med_gas_r/fiber_length	/forceset/lat_gas_r/activation	/forceset/lat_gas_r/fiber_length	/forceset/soleus_r/activation	/forceset/soleus_r/fiber_length	/forceset/tib_post_r/activation	/forceset/tib_post_r/fiber_length	/forceset/flex_dig_r/activation	/forceset/flex_dig_r/fiber_length	/forceset/flex_hal_r/activation	/forceset/flex_hal_r/fiber_length	/forceset/tib_ant_r/activation	/forceset/tib_ant_r/fiber_length	/forceset/per_brev_r/activation	/forceset/per_brev_r/fiber_length	/forceset/per_long_r/activation	/forceset/per_long_r/fiber_length	/forceset/per_tert_r/activation	/forceset/per_tert_r/fiber_length	/forceset/ext_dig_r/activation	/forceset/ext_dig_r/fiber_length	/forceset/ext_hal_r/activation	/forceset/ext_hal_r/fiber_length	/forceset/glut_med1_l/activation	/forceset/glut_med1_l/fiber_length	/forceset/glut_med2_l/activation	/forceset/glut_med2_l/fiber_length	/forceset/glut_med3_l/activation	/forceset/glut_med3_l/fiber_length	/forceset/bifemlh_l/activation	/forceset/bifemlh_l/fiber_length	/forceset/bifemsh_l/activation	/forceset/bifemsh_l/fiber_length	/forceset/sar_l/activation	/forceset/sar_l/fiber_length	/forceset/add_mag2_l/activation	/forceset/add_mag2_l/fiber_length	/forceset/tfl_l/activation	/forceset/tfl_l/fiber_length	/forceset/pect_l/activation	/forceset/pect_l/fiber_length	/forceset/grac_l/activation	/forceset/grac_l/fiber_length	/forceset/glut_max1_l/activation	/forceset/glut_max1_l/fiber_length	/forceset/glut_max2_l/activation	/forceset/glut_max2_l/fiber_length	/forceset/glut_max3_l/activation	/forceset/glut_max3_l/fiber_length	/forceset/iliacus_l/activation	/forceset/iliacus_l/fiber_length	/forceset/psoas_l/activation	/forceset/psoas_l/fiber_length	/forceset/quad_fem_l/activation	/forceset/quad_fem_l/fiber_length	/forceset/gem_l/activation	/forceset/gem_l/fiber_length	/forceset/peri_l/activation	/forceset/peri_l/fiber_length	/forceset/rect_fem_l/activation	/forceset/rect_fem_l/fiber_length	/forceset/vas_int_l/activation	/forceset/vas_int_l/fiber_length	/forceset/med_gas_l/activation	/forceset/med_gas_l/fiber_length	/forceset/lat_gas_l/activation	/forceset/lat_gas_l/fiber_length	/forceset/soleus_l/activation	/forceset/soleus_l/fiber_length	/forceset/tib_post_l/activation	/forceset/tib_post_l/fiber_length	/forceset/flex_dig_l/activation	/forceset/flex_dig_l/fiber_length	/forceset/flex_hal_l/activation	/forceset/flex_hal_l/fiber_length	/forceset/tib_ant_l/activation	/forceset/tib_ant_l/fiber_length	/forceset/per_brev_l/activation	/forceset/per_brev_l/fiber_length	/forceset/per_long_l/activation	/forceset/per_long_l/fiber_length	/forceset/per_tert_l/activation	/forceset/per_tert_l/fiber_length	/forceset/ext_dig_l/activation	/forceset/ext_dig_l/fiber_length	/forceset/ext_hal_l/activation	/forceset/ext_hal_l/fiber_length	/forceset/ercspn_r/activation	/forceset/ercspn_r/fiber_length	/forceset/ercspn_l/activation	/forceset/ercspn_l/fiber_length	/forceset/intobl_r/activation	/forceset/intobl_r/fiber_length	/forceset/intobl_l/activation	/forceset/intobl_l/fiber_length	/forceset/extobl_r/activation	/forceset/extobl_r/fiber_length	/forceset/extobl_l/activation	/forceset/extobl_l/fiber_length
      0.35240726	     20.00000000	     -0.00000000	     -0.00000000	     -0.00000000	      0.00000000	      0.00000000	      0.25000000	      0.00000000	     -3.92650255	    172.60619295	     -7.89060330	   -144.32375136	     -2.89650773	    -23.53432171	      0.04123562	     -0.24541068	      1.13410381	     -1.50698227	     -0.00650997	     -0.17126071	     25.73087656	    111.47806010	      3.31133128	     92.26668129	     -4.35706205	    -31.99914924	    -53.83665452	   -556.85810469	     34.55785923	    112.07571519	     14.00492139	    108.33019000	     -0.00000000	     -0.00000000	    -19.99999998	      0.00000000	     10.00000028	      0.00000000	      4.99999985	      0.00000000	   -119.99999986	     -0.00000000	     11.49999977	      0.00000000	     -0.03000064	      0.00000000	     -0.00000000	     -0.00000000	    -12.12192388	   -272.71357571	      9.12661676	    142.48273760	      5.56932293	     78.19659487	      0.25425488	      0.05676757	      0.19705628	      0.09832989	      0.23819824	      0.07793861	     -0.01991809	      0.09854466	     -0.01858519	      0.15999143	     -0.01410946	      0.48097219	      0.05623379	      0.08826372	      0.12499928	      0.10889964	      0.00061491	      0.06422520	     -0.01954847	      0.31662561	      0.16089922	      0.10314835	      0.16392592	      0.11392669	      0.17253309	      0.12945899	      0.02009348	      0.09779771	      0.01905972	      0.09166728	     -0.01964354	      0.04747578	     -0.01177409	      0.02561455	      0.27330098	      0.02637335	      0.28608855	      0.12981149	      0.38658386	      0.11499218	      0.13409528	      0.10282289	      0.17368988	      0.07271658	      0.23491138	      0.10493735	      0.27797591	      0.03603146	      0.25102391	      0.03145156	      0.29509321	      0.04199147	      0.20004500	      0.05690234	      0.79370065	      0.05803140	      0.82034889	      0.05386099	      0.60012398	      0.07146517	      0.60000103	      0.07741130	      0.20004804	      0.08612241	     -0.01993033	      0.05111649	     -0.01993033	      0.08716779	     -0.01993033	      0.06673534	     -0.01993033	      0.02428048	     -0.01993033	      0.13461995	     -0.01993033	      0.50111739	     -0.01993033	      0.06411506	     -0.01993033	      0.14730645	     -0.01993033	      0.08038127	     -0.01993033	      0.26731708	     -0.01993033	      0.07301880	     -0.01993033	      0.07209866	     -0.01993033	      0.06347041	     -0.01993033	      0.13085274	     -0.01993033	      0.12404021	     -0.01993033	      0.04824096	     -0.01993033	      0.02725649	     -0.01993033	      0.02565909	     -0.01993033	      0.20077404	     -0.01993033	      0.15340515	     -0.01993033	      0.07451135	     -0.01993033	      0.04609409	     -0.01993033	      0.09452687	     -0.01993033	      0.03918173	     -0.01993033	      0.03764999	     -0.01993033	      0.04688520	     -0.01993033	      0.07932341	     -0.01993033	      0.05533507	     -0.01993033	      0.05671573	     -0.01993033	      0.08210518	     -0.01993033	      0.09777198	     -0.01993033	      0.10605241	      0.02738694	      0.13238688	      0.19202509	      0.14721360	     -0.01993033	      0.09248414	      0.09531424	      0.10848106	     -0.01993033	      0.12353508	      0.09258409	      0.14415759
      0.35258189	     20.00000000	     -0.00000000	     -0.00000000	     -0.00000000	      0.00000000	      0.00000000	      0.25000000	      0.00000000	     -3.89633943	    172.85623465	     -7.91577677	   -143.98857691	     -2.90056886	    -22.97461045	      0.04119277	     -0.24527308	      1.13384077	     -1.50571277	     -0.00653994	     -0.17197488	     25.75025596	    110.46371740	      3.32741506	     91.93898998	     -4.36266924	    -32.23273576	    -53.93374720	   -555.13996582	     34.57738358	    111.58038062	     14.02375178	    107.32619448	     -0.00000000	     -0.00000000	    -19.99999998	      0.00000000	     10.00000028	      0.00000000	      4.99999985	      0.00000000	   -119.99999986	     -0.00000000	     11.49999977	      0.00000000	     -0.03000064	      0.00000000	     -0.00000000	     -0.00000000	    -12.16956403	   -272.91294051	      9.15145367	    141.97436598	      5.58293512	     77.69987605	      0.25381407	      0.05678550	      0.19673159	      0.09835032	      0.23781221	      0.07795816	     -0.01994057	      0.09850378	     -0.01860767	      0.15993555	     -0.01413194	      0.48092757	      0.05609054	      0.08825607	      0.12476097	      0.10889784	      0.00059243	      0.06420467	     -0.01957095	      0.31654532	      0.16060294	      0.10317199	      0.16360258	      0.11394927	      0.17211078	      0.12946183	      0.02004703	      0.09778375	      0.01901579	      0.09165540	     -0.01966603	      0.04746842	     -0.01179657	      0.02561182	      0.27296922	      0.02638519	      0.28594010	      0.12987710	      0.38618577	      0.11506686	      0.13368563	      0.10282143	      0.17311448	      0.07271237	      0.23424961	      0.10495234	      0.27766447	      0.03602968	      0.25082906	      0.03144909	      0.29471244	      0.04199224	      0.20004484	      0.05686302	      0.79294997	      0.05804709	      0.81944993	      0.05388427	      0.60012323	      0.07144986	      0.60000103	      0.07737905	      0.20004787	      0.08608729	     -0.01995281	      0.05111649	     -0.01995281	      0.08716779	     -0.01995281	      0.06673534	     -0.01995281	      0.02428048	     -0.01995281	      0.13461995	     -0.01995281	      0.50111739	     -0.01995281	      0.06411506	     -0.01995281	      0.14730645	     -0.01995281	      0.08038127	     -0.01995281	      0.26731708	     -0.01995281	      0.07301880	     -0.01995281	      0.07209866	     -0.01995281	      0.06347041	     -0.01995281	      0.13085274	     -0.01995281	      0.12404021	     -0.01995281	      0.04824096	     -0.01995281	      0.02725649	     -0.01995281	      0.02565909	     -0.01995281	      0.20077404	     -0.01995281	      0.15340515	     -0.01995281	      0.07451135	     -0.01995281	      0.04609409	     -0.01995281	      0.09452687	     -0.01995281	      0.03918173	     -0.01995281	      0.03765001	     -0.01995281	      0.04688523	     -0.01995281	      0.07932341	     -0.01995281	      0.05533507	     -0.01995281	      0.05671573	     -0.01995281	      0.08210518	     -0.01995281	      0.09777198	     -0.01995281	      0.10605241	      0.02764239	      0.13239482	      0.19199631	      0.14727524	     -0.01995281	      0.09243467	      0.09504715	      0.10847952	     -0.01995281	      0.12347572	      0.09232630	      0.14413469
      0.35275651	     20.00000000	     -0.00000000	     -0.00000000	     -0.00000000	      0.00000000	      0.00000000	      0.25000000	      0.00000000	     -3.86613243	    173.11020699	     -7.94089145	   -143.65326856	     -2.90453113	    -22.40346801	      0.04114996	     -0.24510210	      1.13357795	     -1.50447089	     -0.00657003	     -0.17271857	     25.76944945	    109.34785543	      3.34344114	     91.60879165	     -4.36832322	    -32.53458617	    -54.03052657	   -553.26977133	     34.59684042	    111.29905294	     14.04240043	    106.24866193	     -0.00000000	     -0.00000000	    -19.99999998	      0.00000000	     10.00000028	      0.00000000	      4.99999985	      0.00000000	   -119.99999986	     -0.00000000	     11.49999977	      0.00000000	     -0.03000064	      0.00000000	     -0.00000000	     -0.00000000	    -12.21723862	   -273.11151488	      9.17620197	    141.47170391	      5.59645944	     77.19350329	      0.25337402	      0.05680339	      0.19640624	      0.09837065	      0.23742409	      0.07797759	     -0.01996305	      0.09846296	     -0.01863016	      0.15987984	     -0.01415442	      0.48088314	      0.05594771	      0.08824856	      0.12452464	      0.10889613	      0.00056995	      0.06418424	     -0.01959343	      0.31646519	      0.16030595	      0.10319553	      0.16327849	      0.11397189	      0.17168782	      0.12946503	      0.02000070	      0.09776961	      0.01897197	      0.09164336	     -0.01968851	      0.04746106	     -0.01181906	      0.02560919	      0.27263281	      0.02639705	      0.28578985	      0.12994258	      0.38578420	      0.11514129	      0.13327760	      0.10281988	      0.17254164	      0.07270810	      0.23359039	      0.10496716	      0.27735443	      0.03602791	      0.25063503	      0.03144663	      0.29433460	      0.04199302	      0.20004468	      0.05682424	      0.79219887	      0.05806272	      0.81855174	      0.05390747	      0.60012247	      0.07143493	      0.60000102	      0.07734722	      0.20004771	      0.08605258	     -0.01997530	      0.05111649	     -0.01997530	      0.08716779	     -0.01997530	      0.06673534	     -0.01997530	      0.02428048	     -0.01997530	      0.13461995	     -0.01997530	      0.50111739	     -0.01997530	      0.06411506	     -0.01997530	      0.14730645	     -0.01997530	      0.08038127	     -0.01997530	      0.26731708	     -0.01997530	      0.07301880	     -0.01997530	      0.07209866	     -0.01997530	      0.06347041	     -0.01997530	      0.13085274	     -0.01997530	      0.12404021	     -0.01997530	      0.04824096	     -0.01997530	      0.02725649	     -0.01997530	      0.02565909	     -0.01997530	      0.20077404	     -0.01997530	      0.15340515	     -0.01997530	      0.07451135	     -0.01997530	      0.04609409	     -0.01997530	      0.09452687	     -0.01997530	      0.03918173	     -0.01997530	      0.03765003	     -0.01997530	      0.04688525	     -0.01997530	      0.07932341	     -0.01997530	      0.05533507	     -0.01997530	      0.05671573	     -0.01997530	      0.08210518	     -0.01997530	      0.09777198	     -0.01997530	      0.10605241	      0.02789950	      0.13240286	      0.19196663	      0.14731317	     -0.01997530	      0.09238521	      0.09478098	      0.10847783	     -0.01997530	      0.12341637	      0.09206939	      0.14411155
      0.35293113	     20.00000000	     -0.00000000	     -0.00000000	     -0.00000000	      0.00000000	      0.00000000	      0.25000000	      0.00000000	     -3.83588161	    173.35667803	     -7.96594617	   -143.29929593	     -2.90839207	    -21.81302476	      0.04110717	     -0.24487128	      1.13331534	     -1.50328877	     -0.00660026	     -0.17347034	     25.78844054	    108.14815158	      3.35940787	     91.25660195	     -4.37403574	    -32.90310376	    -54.12696732	   -551.26433596	     34.61626728	    111.23744677	     14.06085457	    105.09877409	     -0.00000000	     -0.00000000	    -19.99999998	      0.00000000	     10.00000028	      0.00000000	      4.99999985	      0.00000000	   -119.99999986	     -0.00000000	     11.49999977	      0.00000000	     -0.03000064	      0.00000000	     -0.00000000	     -0.00000000	    -12.26494602	   -273.28557671	      9.20086113	    140.94996958	      5.60989298	     76.65741617	      0.25293488	      0.05682122	      0.19608015	      0.09839089	      0.23703357	      0.07799690	     -0.01998554	      0.09842221	     -0.01865264	      0.15982432	     -0.01417690	      0.48083892	      0.05580530	      0.08824120	      0.12429053	      0.10889453	      0.00054746	      0.06416393	     -0.01961591	      0.31638524	      0.16000809	      0.10321896	      0.16295348	      0.11399451	      0.17126394	      0.12946858	      0.01995448	      0.09775531	      0.01892825	      0.09163117	     -0.01971099	      0.04745367	     -0.01184154	      0.02560665	      0.27229118	      0.02640893	      0.28563774	      0.13000794	      0.38537881	      0.11521545	      0.13287116	      0.10281825	      0.17197133	      0.07270378	      0.23293415	      0.10498181	      0.27704579	      0.03602616	      0.25044180	      0.03144417	      0.29396015	      0.04199380	      0.20004453	      0.05678600	      0.79144697	      0.05807830	      0.81765414	      0.05393058	      0.60012173	      0.07142034	      0.60000101	      0.07731579	      0.20004754	      0.08601829	     -0.01999778	      0.05111649	     -0.01999778	      0.08716779	     -0.01999778	      0.06673534	     -0.01999778	      0.02428048	     -0.01999778	      0.13461995	     -0.01999778	      0.50111739	     -0.01999778	      0.06411506	     -0.01999778	      0.14730645	     -0.01999778	      0.08038127	     -0.01999778	      0.26731708	     -0.01999778	      0.07301880	     -0.01999778	      0.07209866	     -0.01999778	      0.06347041	     -0.01999778	      0.13085274	     -0.01999778	      0.12404021	     -0.01999778	      0.04824096	     -0.01999778	      0.02725649	     -0.01999778	      0.02565909	     -0.01999778	      0.20077404	     -0.01999778	      0.15340515	     -0.01999778	      0.07451135	     -0.01999778	      0.04609410	     -0.01999778	      0.09452687	     -0.01999778	      0.03918173	     -0.01999778	      0.03765005	     -0.01999778	      0.04688527	     -0.01999778	      0.07932341	     -0.01999778	      0.05533507	     -0.01999778	      0.05671573	     -0.01999778	      0.08210518	     -0.01999778	      0.09777198	     -0.01999778	      0.10605241	      0.02815824	      0.13241098	      0.19193604	      0.14737432	     -0.01999778	      0.09233575	      0.09451572	      0.10847600	     -0.01999778	      0.12335701	      0.09181335	      0.14408816
